<?xml version="1.0" encoding="UTF-8" standalone="no"?>
<!DOCTYPE svg PUBLIC "-//W3C//DTD SVG 1.1//EN"
 "http://www.w3.org/Graphics/SVG/1.1/DTD/svg11.dtd">
<!-- Generated by graphviz version 7.1.0 (0)
 -->
<!-- Title: dependencies Pages: 1 -->
<svg width="617pt" height="364pt"
 viewBox="0.00 0.00 617.00 364.00" xmlns="http://www.w3.org/2000/svg" xmlns:xlink="http://www.w3.org/1999/xlink">
<g id="graph0" class="graph" transform="scale(1 1) rotate(0) translate(4 360)">
<title>dependencies</title>
<polygon fill="white" stroke="none" points="-4,4 -4,-360 613,-360 613,4 -4,4"/>
<g id="clust1" class="cluster">
<title>cluster_</title>
<polygon fill="#ffffff" stroke="#ffffff" points="8,-8 8,-348 601,-348 601,-8 8,-8"/>
</g>
<!-- ::app_builder -->
<g id="node1" class="node">
<title>::app_builder</title>
<ellipse fill="#ffffff" stroke="black" cx="225" cy="-250" rx="65.79" ry="18"/>
<text text-anchor="middle" x="225" y="-246.3" font-family="Times,serif" font-size="14.00">app_builder</text>
</g>
<!-- ::dot_formatter -->
<g id="node6" class="node">
<title>::dot_formatter</title>
<ellipse fill="#ffffff" stroke="black" cx="162" cy="-178" rx="75.29" ry="18"/>
<text text-anchor="middle" x="162" y="-174.3" font-family="Times,serif" font-size="14.00">dot_formatter</text>
</g>
<!-- ::app_builder&#45;&gt;::dot_formatter -->
<g id="edge1" class="edge">
<title>::app_builder&#45;&gt;::dot_formatter</title>
<path fill="none" stroke="black" d="M209.75,-232.05C202.24,-223.71 193.04,-213.49 184.73,-204.25"/>
<polygon fill="black" stroke="black" points="187.41,-202.01 178.12,-196.91 182.21,-206.69 187.41,-202.01"/>
</g>
<!-- ::files_reader -->
<g id="node7" class="node">
<title>::files_reader</title>
<ellipse fill="#ffffff" stroke="black" cx="338" cy="-178" rx="64.99" ry="18"/>
<text text-anchor="middle" x="338" y="-174.3" font-family="Times,serif" font-size="14.00">files_reader</text>
</g>
<!-- ::app_builder&#45;&gt;::files_reader -->
<g id="edge2" class="edge">
<title>::app_builder&#45;&gt;::files_reader</title>
<path fill="none" stroke="black" d="M250.64,-233.12C266.1,-223.54 286.01,-211.21 302.91,-200.74"/>
<polygon fill="black" stroke="black" points="304.52,-203.86 311.17,-195.62 300.83,-197.91 304.52,-203.86"/>
</g>
<!-- ::colors -->
<g id="node2" class="node">
<title>::colors</title>
<ellipse fill="#ffffff" stroke="black" cx="54" cy="-106" rx="38.19" ry="18"/>
<text text-anchor="middle" x="54" y="-102.3" font-family="Times,serif" font-size="14.00">colors</text>
</g>
<!-- ::colors&#45;&gt;::colors -->
<g id="edge3" class="edge">
<title>::colors&#45;&gt;::colors</title>
<path fill="none" stroke="black" d="M81.54,-118.9C96.58,-121.2 110.35,-116.9 110.35,-106 110.35,-98 102.92,-93.55 93.02,-92.67"/>
<polygon fill="black" stroke="black" points="92.91,-89.17 83.05,-93.04 93.18,-96.16 92.91,-89.17"/>
</g>
<!-- ::dependencies_graph -->
<g id="node3" class="node">
<title>::dependencies_graph</title>
<ellipse fill="#ffffff" stroke="black" cx="234" cy="-106" rx="105.88" ry="18"/>
<text text-anchor="middle" x="234" y="-102.3" font-family="Times,serif" font-size="14.00">dependencies_graph</text>
</g>
<!-- ::dependency_components -->
<g id="node5" class="node">
<title>::dependency_components</title>
<ellipse fill="#ffffff" stroke="black" cx="445" cy="-34" rx="126.98" ry="18"/>
<text text-anchor="middle" x="445" y="-30.3" font-family="Times,serif" font-size="14.00">dependency_components</text>
</g>
<!-- ::dependencies_graph&#45;&gt;::dependency_components -->
<g id="edge4" class="edge">
<title>::dependencies_graph&#45;&gt;::dependency_components</title>
<path fill="none" stroke="black" d="M280.83,-89.46C311.83,-79.18 352.75,-65.6 385.98,-54.58"/>
<polygon fill="black" stroke="black" points="386.65,-58.05 395.04,-51.58 384.44,-51.4 386.65,-58.05"/>
</g>
<!-- ::trie -->
<g id="node10" class="node">
<title>::trie</title>
<ellipse fill="#ffffff" stroke="black" cx="234" cy="-34" rx="27.1" ry="18"/>
<text text-anchor="middle" x="234" y="-30.3" font-family="Times,serif" font-size="14.00">trie</text>
</g>
<!-- ::dependencies_graph&#45;&gt;::trie -->
<g id="edge5" class="edge">
<title>::dependencies_graph&#45;&gt;::trie</title>
<path fill="none" stroke="black" d="M234,-87.7C234,-80.41 234,-71.73 234,-63.54"/>
<polygon fill="black" stroke="black" points="237.5,-63.62 234,-53.62 230.5,-63.62 237.5,-63.62"/>
</g>
<!-- ::dependencies_parser -->
<g id="node4" class="node">
<title>::dependencies_parser</title>
<ellipse fill="#ffffff" stroke="black" cx="466" cy="-106" rx="108.58" ry="18"/>
<text text-anchor="middle" x="466" y="-102.3" font-family="Times,serif" font-size="14.00">dependencies_parser</text>
</g>
<!-- ::dependencies_parser&#45;&gt;::dependencies_parser -->
<g id="edge6" class="edge">
<title>::dependencies_parser&#45;&gt;::dependencies_parser</title>
<path fill="none" stroke="black" d="M540.72,-119.46C569.08,-119.98 592.54,-115.49 592.54,-106 592.54,-97.81 575.06,-93.34 552.03,-92.61"/>
<polygon fill="black" stroke="black" points="552.25,-89.11 542.23,-92.55 552.21,-96.11 552.25,-89.11"/>
</g>
<!-- ::dependencies_parser&#45;&gt;::dependency_components -->
<g id="edge7" class="edge">
<title>::dependencies_parser&#45;&gt;::dependency_components</title>
<path fill="none" stroke="black" d="M460.81,-87.7C458.57,-80.24 455.9,-71.32 453.39,-62.97"/>
<polygon fill="black" stroke="black" points="456.79,-62.13 450.57,-53.55 450.09,-64.14 456.79,-62.13"/>
</g>
<!-- ::dot_formatter&#45;&gt;::colors -->
<g id="edge8" class="edge">
<title>::dot_formatter&#45;&gt;::colors</title>
<path fill="none" stroke="black" d="M136.68,-160.59C121.4,-150.68 101.8,-137.98 85.52,-127.43"/>
<polygon fill="black" stroke="black" points="87.44,-124.5 77.15,-122 83.63,-130.38 87.44,-124.5"/>
</g>
<!-- ::dot_formatter&#45;&gt;::dependencies_graph -->
<g id="edge9" class="edge">
<title>::dot_formatter&#45;&gt;::dependencies_graph</title>
<path fill="none" stroke="black" d="M179.43,-160.05C188.12,-151.61 198.8,-141.22 208.4,-131.89"/>
<polygon fill="black" stroke="black" points="210.67,-134.57 215.4,-125.09 205.79,-129.55 210.67,-134.57"/>
</g>
<!-- ::dot_formatter&#45;&gt;::dot_formatter -->
<g id="edge10" class="edge">
<title>::dot_formatter&#45;&gt;::dot_formatter</title>
<path fill="none" stroke="black" d="M214.33,-191.36C236.51,-192.37 255.39,-187.91 255.39,-178 255.39,-169.79 242.44,-165.32 225.4,-164.6"/>
<polygon fill="black" stroke="black" points="225.84,-161.1 215.85,-164.63 225.86,-168.1 225.84,-161.1"/>
</g>
<!-- ::files_reader&#45;&gt;::dependencies_graph -->
<g id="edge11" class="edge">
<title>::files_reader&#45;&gt;::dependencies_graph</title>
<path fill="none" stroke="black" d="M314.14,-160.94C300.66,-151.87 283.57,-140.37 268.64,-130.32"/>
<polygon fill="black" stroke="black" points="270.71,-127.49 260.45,-124.81 266.8,-133.29 270.71,-127.49"/>
</g>
<!-- ::files_reader&#45;&gt;::dependencies_parser -->
<g id="edge12" class="edge">
<title>::files_reader&#45;&gt;::dependencies_parser</title>
<path fill="none" stroke="black" d="M366.41,-161.46C383.76,-151.97 406.24,-139.68 425.45,-129.18"/>
<polygon fill="black" stroke="black" points="427.02,-132.31 434.11,-124.44 423.66,-126.17 427.02,-132.31"/>
</g>
<!-- ::lib -->
<g id="node8" class="node">
<title>::lib</title>
<ellipse fill="#ffffff" stroke="black" cx="502" cy="-322" rx="27" ry="18"/>
<text text-anchor="middle" x="502" y="-318.3" font-family="Times,serif" font-size="14.00">lib</text>
</g>
<!-- ::main -->
<g id="node9" class="node">
<title>::main</title>
<ellipse fill="#ffffff" stroke="black" cx="225" cy="-322" rx="33.6" ry="18"/>
<text text-anchor="middle" x="225" y="-318.3" font-family="Times,serif" font-size="14.00">main</text>
</g>
<!-- ::main&#45;&gt;::app_builder -->
<g id="edge13" class="edge">
<title>::main&#45;&gt;::app_builder</title>
<path fill="none" stroke="black" d="M225,-303.7C225,-296.41 225,-287.73 225,-279.54"/>
<polygon fill="black" stroke="black" points="228.5,-279.62 225,-269.62 221.5,-279.62 228.5,-279.62"/>
</g>
<!-- ::trie&#45;&gt;::trie -->
<g id="edge14" class="edge">
<title>::trie&#45;&gt;::trie</title>
<path fill="none" stroke="black" d="M254.03,-46.43C266.9,-49.68 279.3,-45.53 279.3,-34 279.3,-25.98 273.31,-21.54 265.33,-20.66"/>
<polygon fill="black" stroke="black" points="265.22,-17.16 255.54,-21.45 265.78,-24.14 265.22,-17.16"/>
</g>
</g>
</svg>
