<?xml version="1.0" encoding="UTF-8" standalone="no"?>
<!DOCTYPE svg PUBLIC "-//W3C//DTD SVG 1.1//EN"
 "http://www.w3.org/Graphics/SVG/1.1/DTD/svg11.dtd">
<!-- Generated by graphviz version 8.1.0 (0)
 -->
<!-- Title: dependencies Pages: 1 -->
<svg width="491pt" height="364pt"
 viewBox="0.00 0.00 491.00 364.00" xmlns="http://www.w3.org/2000/svg" xmlns:xlink="http://www.w3.org/1999/xlink">
<g id="graph0" class="graph" transform="scale(1 1) rotate(0) translate(4 360)">
<title>dependencies</title>
<polygon fill="white" stroke="none" points="-4,4 -4,-360 487,-360 487,4 -4,4"/>
<g id="clust1" class="cluster">
<title>cluster_</title>
<polygon fill="#ffffff" stroke="#ffffff" points="8,-8 8,-348 475,-348 475,-8 8,-8"/>
</g>
<!-- ::app_builder -->
<g id="node1" class="node">
<title>::app_builder</title>
<ellipse fill="#ffffff" stroke="black" cx="177" cy="-250" rx="54.93" ry="18"/>
<text text-anchor="middle" x="177" y="-244.95" font-family="Times,serif" font-size="14.00">app_builder</text>
</g>
<!-- ::dot_formatter -->
<g id="node6" class="node">
<title>::dot_formatter</title>
<ellipse fill="#ffffff" stroke="black" cx="132" cy="-178" rx="62.1" ry="18"/>
<text text-anchor="middle" x="132" y="-172.95" font-family="Times,serif" font-size="14.00">dot_formatter</text>
</g>
<!-- ::app_builder&#45;&gt;::dot_formatter -->
<g id="edge1" class="edge">
<title>::app_builder&#45;&gt;::dot_formatter</title>
<path fill="none" stroke="black" d="M166.11,-232.05C160.86,-223.89 154.44,-213.91 148.6,-204.82"/>
<polygon fill="black" stroke="black" points="151.14,-203.31 142.79,-196.79 145.26,-207.09 151.14,-203.31"/>
</g>
<!-- ::files_reader -->
<g id="node7" class="node">
<title>::files_reader</title>
<ellipse fill="#ffffff" stroke="black" cx="267" cy="-178" rx="54.42" ry="18"/>
<text text-anchor="middle" x="267" y="-172.95" font-family="Times,serif" font-size="14.00">files_reader</text>
</g>
<!-- ::app_builder&#45;&gt;::files_reader -->
<g id="edge2" class="edge">
<title>::app_builder&#45;&gt;::files_reader</title>
<path fill="none" stroke="black" d="M197.42,-233.12C209.42,-223.78 224.78,-211.84 238.01,-201.55"/>
<polygon fill="black" stroke="black" points="239.6,-203.97 245.35,-195.06 235.3,-198.44 239.6,-203.97"/>
</g>
<!-- ::colors -->
<g id="node2" class="node">
<title>::colors</title>
<ellipse fill="#ffffff" stroke="black" cx="49" cy="-106" rx="33.44" ry="18"/>
<text text-anchor="middle" x="49" y="-100.95" font-family="Times,serif" font-size="14.00">colors</text>
</g>
<!-- ::dependencies_graph -->
<g id="node3" class="node">
<title>::dependencies_graph</title>
<ellipse fill="#ffffff" stroke="black" cx="187" cy="-106" rx="86.15" ry="18"/>
<text text-anchor="middle" x="187" y="-100.95" font-family="Times,serif" font-size="14.00">dependencies_graph</text>
</g>
<!-- ::dependency_components -->
<g id="node5" class="node">
<title>::dependency_components</title>
<ellipse fill="#ffffff" stroke="black" cx="349" cy="-34" rx="104.58" ry="18"/>
<text text-anchor="middle" x="349" y="-28.95" font-family="Times,serif" font-size="14.00">dependency_components</text>
</g>
<!-- ::dependencies_graph&#45;&gt;::dependency_components -->
<g id="edge3" class="edge">
<title>::dependencies_graph&#45;&gt;::dependency_components</title>
<path fill="none" stroke="black" d="M223.36,-89.29C246.4,-79.34 276.44,-66.35 301.38,-55.58"/>
<polygon fill="black" stroke="black" points="302.57,-58.44 310.36,-51.26 299.79,-52.02 302.57,-58.44"/>
</g>
<!-- ::trie -->
<g id="node10" class="node">
<title>::trie</title>
<ellipse fill="#ffffff" stroke="black" cx="187" cy="-34" rx="27" ry="18"/>
<text text-anchor="middle" x="187" y="-28.95" font-family="Times,serif" font-size="14.00">trie</text>
</g>
<!-- ::dependencies_graph&#45;&gt;::trie -->
<g id="edge4" class="edge">
<title>::dependencies_graph&#45;&gt;::trie</title>
<path fill="none" stroke="black" d="M187,-87.7C187,-80.24 187,-71.32 187,-62.97"/>
<polygon fill="black" stroke="black" points="190.5,-63.1 187,-53.1 183.5,-63.1 190.5,-63.1"/>
</g>
<!-- ::dependencies_parser -->
<g id="node4" class="node">
<title>::dependencies_parser</title>
<ellipse fill="#ffffff" stroke="black" cx="379" cy="-106" rx="87.69" ry="18"/>
<text text-anchor="middle" x="379" y="-100.95" font-family="Times,serif" font-size="14.00">dependencies_parser</text>
</g>
<!-- ::dependencies_parser&#45;&gt;::dependency_components -->
<g id="edge5" class="edge">
<title>::dependencies_parser&#45;&gt;::dependency_components</title>
<path fill="none" stroke="black" d="M371.58,-87.7C368.28,-79.98 364.31,-70.71 360.62,-62.11"/>
<polygon fill="black" stroke="black" points="363.49,-60.92 356.33,-53.1 357.05,-63.67 363.49,-60.92"/>
</g>
<!-- ::dot_formatter&#45;&gt;::colors -->
<g id="edge6" class="edge">
<title>::dot_formatter&#45;&gt;::colors</title>
<path fill="none" stroke="black" d="M112.75,-160.76C101.39,-151.18 86.87,-138.94 74.56,-128.55"/>
<polygon fill="black" stroke="black" points="77.35,-125.49 67.45,-121.72 72.84,-130.84 77.35,-125.49"/>
</g>
<!-- ::dot_formatter&#45;&gt;::dependencies_graph -->
<g id="edge7" class="edge">
<title>::dot_formatter&#45;&gt;::dependencies_graph</title>
<path fill="none" stroke="black" d="M145.31,-160.05C151.87,-151.71 159.9,-141.49 167.16,-132.25"/>
<polygon fill="black" stroke="black" points="170.38,-134.81 173.81,-124.79 164.88,-130.49 170.38,-134.81"/>
</g>
<!-- ::files_reader&#45;&gt;::dependencies_graph -->
<g id="edge8" class="edge">
<title>::files_reader&#45;&gt;::dependencies_graph</title>
<path fill="none" stroke="black" d="M248.45,-160.76C238.37,-151.95 225.71,-140.87 214.51,-131.07"/>
<polygon fill="black" stroke="black" points="217.12,-127.83 207.29,-123.88 212.51,-133.1 217.12,-127.83"/>
</g>
<!-- ::files_reader&#45;&gt;::dependencies_parser -->
<g id="edge9" class="edge">
<title>::files_reader&#45;&gt;::dependencies_parser</title>
<path fill="none" stroke="black" d="M291.58,-161.64C306.79,-152.13 326.58,-139.76 343.48,-129.2"/>
<polygon fill="black" stroke="black" points="344.9,-131.82 351.52,-123.55 341.19,-125.88 344.9,-131.82"/>
</g>
<!-- ::lib -->
<g id="node8" class="node">
<title>::lib</title>
<ellipse fill="#ffffff" stroke="black" cx="395" cy="-322" rx="27" ry="18"/>
<text text-anchor="middle" x="395" y="-316.95" font-family="Times,serif" font-size="14.00">lib</text>
</g>
<!-- ::main -->
<g id="node9" class="node">
<title>::main</title>
<ellipse fill="#ffffff" stroke="black" cx="177" cy="-322" rx="29.86" ry="18"/>
<text text-anchor="middle" x="177" y="-316.95" font-family="Times,serif" font-size="14.00">main</text>
</g>
<!-- ::main&#45;&gt;::app_builder -->
<g id="edge10" class="edge">
<title>::main&#45;&gt;::app_builder</title>
<path fill="none" stroke="black" d="M177,-303.7C177,-296.24 177,-287.32 177,-278.97"/>
<polygon fill="black" stroke="black" points="180.5,-279.1 177,-269.1 173.5,-279.1 180.5,-279.1"/>
</g>
</g>
</svg>
